<?xml version="1.0" encoding="UTF-8"?><svg id="Layer_1" xmlns="http://www.w3.org/2000/svg" width="295.9" height="48" viewBox="0 0 295.9 48"><defs><style>.cls-1{fill:#fff;}</style></defs><path class="cls-1" d="M33,42.9c-3.7,3.6-8.6,5.1-13.8,5.1s-10.6-1.4-14.2-5C.5,38.5,0,34.4,0,28.5V0h12.6v28.5c0,4.3.7,9,6.4,9s6.3-4.5,6.3-9V0h12.6v28.5c0,5.6-.7,10.4-4.9,14.5Z"/><path class="cls-1" d="M46.5,47.1V0h12.6v36.5h14.6v10.6h-27.3Z"/><path class="cls-1" d="M80.7,47.1V0h27.5v10.6h-15.4v7.3h14.9v10.6h-14.9v8.1h15.4v10.6h-27.5Z"/><path class="cls-1" d="M156.6,47.1l.4-35.3h-.1c0-.1-10.6,35.3-10.6,35.3h-8.4l-10.6-35.4h-.1c0,.1.4,35.4.4,35.4h-11.6V0h16.2l9.8,31h.1L151.9,0h16.3v47.1h-11.6Z"/><path class="cls-1" d="M207.8,47.1l-2.4-6.8h-17.2l-2.6,6.8h-13.6L191.9,0h10l19.7,47.1h-13.7ZM196.9,14.6h-.2l-5.1,16.1h10.4l-5.1-16.1Z"/><path class="cls-1" d="M248.9,47.1l-11.4-15.2h-.1v15.2h-12.1V0h15.6c5.2,0,11,.1,15.2,3.4,4.1,3.1,6.1,8,6.1,12.9,0,7.3-4.5,13.6-12.3,14.8l13.4,16h-14.4ZM241.9,10.6h-4.6v13.1h4.5c4.7,0,8.3-1.9,8.3-6.7s-3.8-6.4-8.2-6.4Z"/><path class="cls-1" d="M268.4,47.1V0h27.5v10.6h-15.4v7.3h14.9v10.6h-14.9v8.1h15.4v10.6h-27.5Z"/></svg>