<?xml version="1.0" encoding="UTF-8"?><svg id="Layer_1" xmlns="http://www.w3.org/2000/svg" width="128" height="128" viewBox="0 0 128 128"><defs><style>.cls-1{fill:#fff;}.cls-2{fill:red;}</style></defs><path class="cls-1" d="M5.7.8v69.1c0,9.4,1.3,17.8,4,25,2.7,7.3,6.7,13.5,11.9,18.3,5.1,4.8,11.4,8.5,18.7,10.7,7,2.2,14.9,3.3,23.5,3.3s16.5-1.1,23.6-3.3c7.3-2.3,13.6-5.9,18.8-10.7,5.2-4.9,9.3-11.1,12.1-18.5,2.8-7.2,4.2-15.9,4.2-25.7V.8H5.7Z"/><path d="M63.7,115.6c-7.2,0-13.7-.9-19.5-2.8-5.8-1.8-10.7-4.6-14.8-8.5-4-3.8-7.2-8.6-9.3-14.5-2.2-5.8-3.2-12.7-3.2-20.6V12.4h28.6v56.2c0,7.3,1.7,12.8,5,16.3s7.9,5.3,13.5,5.3,10.1-1.7,13.5-5.1c3.4-3.4,5-8.6,5-15.8V12.4h28.6v56.1c0,8.2-1.1,15.3-3.4,21.2-2.3,5.9-5.5,10.8-9.6,14.6-4.1,3.8-9.1,6.6-14.9,8.5-5.8,1.8-12.4,2.8-19.6,2.8Z"/><path class="cls-2" d="M50.5,12.4v57.5c0,5.3,1.2,9.3,3.6,11.8s5.7,3.8,9.8,3.8,7.4-1.2,9.8-3.7c2.5-2.5,3.7-6.3,3.7-11.5V12.4"/></svg>