<?xml version="1.0" encoding="UTF-8"?><svg id="Layer_1" xmlns="http://www.w3.org/2000/svg" width="128" height="128" viewBox="0 0 128 128"><defs><style>.cls-1{fill:#fff;}</style></defs><path class="cls-1" d="M63.3,127.1c-8.2,0-15.9-1.1-22.7-3.3-7.6-2.4-14.2-6.2-19.7-11.4-5.5-5.2-9.7-11.7-12.6-19.3-2.6-7.1-4-15.4-4-24.5V10.9C4.3,5.1,9,.5,14.8.5h37.2c5.8,0,10.4,4.7,10.4,10.4v57.2c0,2,.2,3.2.4,3.9.2,0,.4,0,.8,0s.7,0,.9,0c.1-.6.3-1.6.3-3.3V10.9c0-5.8,4.7-10.4,10.4-10.4h37.2c5.8,0,10.4,4.7,10.4,10.4v57.1c0,9.4-1.4,17.9-4.2,25.2-3,7.7-7.3,14.3-12.8,19.4-5.5,5.1-12.1,8.9-19.8,11.3-6.9,2.2-14.6,3.3-22.8,3.3Z"/><path d="M75.2,7.9c-1.7,0-3,1.4-3,3v57.9c0,4.1-.8,7.1-2.2,8.6-.9.9-2.6,2.2-6.4,2.2s-5.4-1.3-6.3-2.2c-1.5-1.5-2.3-4.8-2.3-9.1V10.9c0-1.7-1.4-3-3-3H14.8c-1.7,0-3,1.4-3,3v57.7c0,8.2,1.2,15.6,3.5,21.9,2.4,6.6,6.1,12.1,10.7,16.5,4.6,4.4,10.3,7.6,16.8,9.7,6.1,1.9,13,2.9,20.5,2.9s14.4-1,20.6-2.9c6.6-2.1,12.3-5.3,16.9-9.7,4.7-4.4,8.4-10,10.9-16.6,2.4-6.4,3.7-14,3.7-22.5V10.9c0-1.7-1.4-3-3-3h-37.2Z"/></svg>